<?xml version="1.0" encoding="UTF-8" standalone="no"?>
<!DOCTYPE svg PUBLIC "-//W3C//DTD SVG 1.1//EN" "http://www.w3.org/Graphics/SVG/1.1/DTD/svg11.dtd">
<svg width="100%" height="100%" viewBox="0 0 591 591" version="1.1" xmlns="http://www.w3.org/2000/svg" xmlns:xlink="http://www.w3.org/1999/xlink" xml:space="preserve" xmlns:serif="http://www.serif.com/" style="fill-rule:evenodd;clip-rule:evenodd;stroke-linejoin:round;stroke-miterlimit:2;">
    <g transform="matrix(1.02923,0,0,1.02923,51.9614,52.275)">
        <g transform="matrix(0.21138,0,0,0.21138,-51.4974,-5.60216)">
            <circle cx="1362.01" cy="1143.44" r="1104.34" style="fill:url(#_Linear1);"/>
            <clipPath id="_clip2">
                <circle cx="1362.01" cy="1143.44" r="1104.34"/>
            </clipPath>
            <g clip-path="url(#_clip2)">
                <g transform="matrix(0.881867,-3.90793e-19,3.90793e-19,0.881867,183.056,49.1366)">
                    <path d="M1224.44,1694.8L1243.13,1663.7L1453.83,1553.94L1635.1,1628.77L1708.17,1772.92L1810.55,1751.71L1989.76,1824.51L2051.81,1919.7L2141.63,1903.56L2256.69,1930.71L2384.51,2076.04L2398.8,2160.72C2398.8,2160.72 2283.56,2417.89 2141.63,2417.89C2031.04,2417.89 1936.65,2347.92 1900.37,2249.89C1872.41,2260.33 1842.14,2266.04 1810.55,2266.04C1681.59,2266.04 1574.67,2170.91 1556.2,2047.06C1524.83,2060.7 1490.2,2068.27 1453.83,2068.27C1388.88,2068.27 1329.52,2044.14 1284.24,2004.37C1241.76,2087.92 1154.95,2145.22 1054.86,2145.22C986.972,2145.22 925.193,2118.86 879.201,2075.82C833.858,2149.09 752.765,2197.94 660.352,2197.94C626.473,2197.94 594.115,2191.38 564.498,2179.45C534.182,2287.72 434.713,2367.22 316.824,2367.22C174.891,2367.22 59.659,2110.05 59.659,2110.05L105.538,1963.49L259.584,1859.29L330.058,1853.22L412.678,1871.38L447.137,1797.03L565.176,1701.83L693.723,1685.76L836.009,1753.02L985.406,1640.4L1012.61,1634.36L1160.82,1653.7L1224.44,1694.8Z" style="fill:rgb(255,207,7);"/>
                    <clipPath id="_clip3">
                        <path d="M1224.44,1694.8L1243.13,1663.7L1453.83,1553.94L1635.1,1628.77L1708.17,1772.92L1810.55,1751.71L1989.76,1824.51L2051.81,1919.7L2141.63,1903.56L2256.69,1930.71L2384.51,2076.04L2398.8,2160.72C2398.8,2160.72 2283.56,2417.89 2141.63,2417.89C2031.04,2417.89 1936.65,2347.92 1900.37,2249.89C1872.41,2260.33 1842.14,2266.04 1810.55,2266.04C1681.59,2266.04 1574.67,2170.91 1556.2,2047.06C1524.83,2060.7 1490.2,2068.27 1453.83,2068.27C1388.88,2068.27 1329.52,2044.14 1284.24,2004.37C1241.76,2087.92 1154.95,2145.22 1054.86,2145.22C986.972,2145.22 925.193,2118.86 879.201,2075.82C833.858,2149.09 752.765,2197.94 660.352,2197.94C626.473,2197.94 594.115,2191.38 564.498,2179.45C534.182,2287.72 434.713,2367.22 316.824,2367.22C174.891,2367.22 59.659,2110.05 59.659,2110.05L105.538,1963.49L259.584,1859.29L330.058,1853.22L412.678,1871.38L447.137,1797.03L565.176,1701.83L693.723,1685.76L836.009,1753.02L985.406,1640.4L1012.61,1634.36L1160.82,1653.7L1224.44,1694.8Z"/>
                    </clipPath>
                    <g clip-path="url(#_clip3)">
                        <g transform="matrix(0.950635,0,0,0.950635,87.0593,-464.828)">
                            <g transform="matrix(1.4218,4.81482e-34,-4.81482e-34,1.4218,-370.818,-937.245)">
                                <path d="M559.056,2466.97L696.549,2292.1L773.801,2491.55L559.056,2466.97Z" style="fill:rgb(254,222,101);"/>
                            </g>
                            <g transform="matrix(1.4218,4.81482e-34,-4.81482e-34,1.4218,-370.818,-937.245)">
                                <path d="M823.857,2339.72L773.46,2491.41L893.861,2378.32L823.857,2339.72Z" style="fill:rgb(254,222,101);"/>
                            </g>
                            <g transform="matrix(1,4.81482e-34,-4.81482e-34,1,-39.279,14.4023)">
                                <path d="M1492.48,2650.06L1806.13,2677.81L1690.13,2248.98L1492.48,2650.06Z" style="fill:rgb(254,222,101);"/>
                            </g>
                            <g transform="matrix(1.37137,8.66668e-34,-8.66668e-34,1.37137,-768.285,-687.315)">
                                <path d="M571.048,2424.26L696.549,2292.1L727.011,2426.91L571.048,2424.26Z" style="fill:rgb(255,207,7);"/>
                            </g>
                            <g transform="matrix(1.51579,3.85186e-34,-3.85186e-34,1.51579,799.853,-1051.9)">
                                <path d="M638.208,2470.58L685.235,2313.45L804.609,2449.86L638.208,2470.58Z" style="fill:rgb(254,222,101);"/>
                            </g>
                            <g transform="matrix(1,4.81482e-34,-4.81482e-34,1,-39.279,14.4023)">
                                <path d="M1247.18,2344.99L1456.23,2241.42L1493.91,2667.32L1308.97,2635.19L1247.18,2344.99Z" style="fill:rgb(254,222,101);"/>
                            </g>
                            <g transform="matrix(1.12918,3.85186e-34,-8.66668e-34,1.35618,-150.693,-862.94)">
                                <path d="M1151.9,2339.45L1201.97,2465.82L997.854,2333.5L1151.9,2339.45Z" style="fill:rgb(254,222,101);"/>
                            </g>
                            <g transform="matrix(0.620244,2.40741e-34,-2.40741e-34,0.620244,1278.85,1155.48)">
                                <path d="M1310.93,2443.45L1461.5,2248.99L1615.86,2474.34L1396.51,2536.19L1310.93,2443.45Z" style="fill:rgb(254,222,101);"/>
                            </g>
                            <g transform="matrix(0.620244,2.40741e-34,-2.40741e-34,0.620244,1278.85,1155.48)">
                                <path d="M1637.66,2657.23L1596.02,2312.24L1852.04,2432.77L1637.66,2657.23Z" style="fill:rgb(254,222,101);"/>
                            </g>
                            <g transform="matrix(0.620244,2.40741e-34,-2.40741e-34,0.620244,1278.85,1155.48)">
                                <path d="M1312.4,2443.28L1132.8,2356.62L1368.34,2278.49L1312.4,2443.28Z" style="fill:rgb(254,222,101);"/>
                            </g>
                            <g transform="matrix(1.07488,6.74075e-34,-6.74075e-34,1.07488,87.418,462.762)">
                                <path d="M826.67,1710.5L754.578,1844.72L859.597,1808.59L826.67,1710.5Z" style="fill:rgb(254,222,101);"/>
                            </g>
                            <g transform="matrix(1.12918,0,0,1.35618,-150.693,-864.296)">
                                <path d="M843.515,2399.01L998.106,2334.43L929.536,2440.75L843.515,2399.01Z" style="fill:rgb(255,207,7);"/>
                            </g>
                            <g transform="matrix(1.51579,0,0,1.51579,799.853,-1051.9)">
                                <path d="M684.244,2312.23L779.248,2420.73L841.926,2399.82L684.244,2312.23Z" style="fill:rgb(255,207,7);"/>
                            </g>
                            <g transform="matrix(1.11471,-0.118378,0.105602,0.994408,-513.868,378.277)">
                                <path d="M1807.11,2548.65C1806.99,2549.42 1752.78,2171.06 1753.82,2173.37C1754.87,2175.67 1894.82,2317.62 1894.47,2317.85C1894.12,2318.08 1807.81,2544.5 1807.11,2548.65Z" style="fill:rgb(255,207,7);"/>
                            </g>
                            <g transform="matrix(1,0,0,1,-41.243,12.4384)">
                                <path d="M1248.06,2469.28L1189.82,2291.3L1358.08,2458.49L1248.06,2469.28Z" style="fill:rgb(255,207,7);"/>
                            </g>
                            <g transform="matrix(1,0,0,1,-39.279,14.4023)">
                                <path d="M1494.33,2650.36L1455.39,2247.2L1686.84,2262.08L1494.33,2650.36Z" style="fill:rgb(255,207,7);"/>
                            </g>
                            <g transform="matrix(0.620244,0,0,0.620244,1278.85,1155.48)">
                                <path d="M1362.34,2369.71L1455.09,2245.1L1368.74,2261.77L1362.34,2369.71Z" style="fill:rgb(255,207,7);"/>
                            </g>
                            <g transform="matrix(0.620244,0,0,0.620244,1278.85,1155.48)">
                                <path d="M1616.06,2474.93L1456.65,2244.09L1599.59,2262.03L1616.06,2474.93Z" style="fill:rgb(255,207,7);"/>
                            </g>
                            <g transform="matrix(1.07488,1.92593e-34,-1.92593e-34,1.07488,85.9129,466.775)">
                                <path d="M828.055,1707.15L860.53,1803.92L985.526,1829.5L828.055,1707.15Z" style="fill:rgb(255,207,7);"/>
                            </g>
                            <g transform="matrix(1.4218,2.88889e-33,-2.88889e-33,1.4218,-370.818,-937.245)">
                                <path d="M708.871,2211.78L700.545,2245.85L823.42,2339.8L814.165,2296.08L708.871,2211.78Z" style="fill:rgb(255,233,156);"/>
                            </g>
                            <g transform="matrix(1.12918,1.54074e-33,-2.50371e-33,1.35618,-150.693,-862.94)">
                                <path d="M961.155,2248.04L1153.02,2340.57L997.945,2333.88L961.155,2248.04Z" style="fill:rgb(255,233,156);"/>
                            </g>
                            <g transform="matrix(1.37137,1.82963e-33,-1.82963e-33,1.37137,-768.285,-687.315)">
                                <path d="M736.416,2243.23L696.62,2292.31L764.776,2368.61L736.416,2243.23Z" style="fill:rgb(255,233,156);"/>
                            </g>
                            <g transform="matrix(1.37137,1.82963e-33,-1.82963e-33,1.37137,-768.285,-687.315)">
                                <path d="M696.617,2292.41L737.725,2243.3L680.949,2231.58L696.617,2292.41Z" style="fill:rgb(255,233,156);"/>
                            </g>
                            <g transform="matrix(1.37137,1.82963e-33,-1.82963e-33,1.37137,-768.285,-687.315)">
                                <path d="M794.045,2268.52L764.753,2368.61L799.007,2401.01L876.083,2375.81L794.045,2268.52Z" style="fill:rgb(254,222,101);"/>
                            </g>
                            <g transform="matrix(1.37137,1.82963e-33,-1.82963e-33,1.37137,-768.285,-687.315)">
                                <path d="M696.423,2292.05L609.357,2484.55L764.744,2368.57L696.423,2292.05Z" style="fill:rgb(254,222,101);"/>
                            </g>
                            <g transform="matrix(1.41332,-0.150089,0.133891,1.26079,-2413.53,-188.641)">
                                <path d="M1786.67,2401.18L1758.57,2234.71L1838.06,2167.85L1937.85,2221.09L1786.67,2401.18Z" style="fill:rgb(255,233,156);"/>
                            </g>
                            <g transform="matrix(1,1.25185e-33,-1.25185e-33,1,-39.279,14.4023)">
                                <path d="M1640.88,2122.14L1730.66,2399.21L1770.66,2230.67L1640.88,2122.14Z" style="fill:rgb(255,233,156);"/>
                            </g>
                            <g transform="matrix(1,1.25185e-33,-1.25185e-33,1,-39.279,14.4023)">
                                <path d="M1218.28,2207.06L1274.85,2377.26L1461.68,2245.97L1218.28,2207.06Z" style="fill:rgb(255,233,156);"/>
                            </g>
                            <g transform="matrix(0.620244,1.20371e-33,-1.20371e-33,0.620244,1278.85,1155.48)">
                                <path d="M1270.15,2179.36L1285.64,2306.34L1330.55,2131.33L1270.15,2179.36Z" style="fill:rgb(255,233,156);"/>
                            </g>
                            <g transform="matrix(0.620244,1.20371e-33,-1.20371e-33,0.620244,1278.85,1155.48)">
                                <path d="M1454.97,2246.45L1879.84,2461.03L1691.13,2172.49L1454.97,2246.45Z" style="fill:rgb(255,233,156);"/>
                            </g>
                            <g transform="matrix(1.4218,4.81482e-34,-4.81482e-34,1.4218,-370.818,-937.245)">
                                <path d="M823.419,2339.77L678.58,2228.05L606.798,2260.1L823.419,2339.77Z" style="fill:rgb(254,244,197);"/>
                            </g>
                            <g transform="matrix(1.12918,3.85186e-34,-8.66668e-34,1.35618,-150.693,-862.94)">
                                <path d="M962.294,2250.84L823.243,2325.44L841.788,2398.27L998.067,2333.63L962.294,2250.84Z" style="fill:rgb(254,244,197);"/>
                            </g>
                            <g transform="matrix(1.12918,3.85186e-34,-8.66668e-34,1.35618,-150.693,-862.94)">
                                <path d="M1228.11,2399.2L1152.94,2340.77L943.566,2240.03L1150.25,2273.72L1192.37,2309.32L1228.11,2399.2Z" style="fill:rgb(254,244,197);"/>
                            </g>
                            <g transform="matrix(1.37137,8.66668e-34,-8.66668e-34,1.37137,-768.285,-687.315)">
                                <path d="M733.219,2229.78L764.758,2368.68L795.035,2273.31L733.219,2229.78Z" style="fill:rgb(254,244,197);"/>
                            </g>
                            <g transform="matrix(1.11471,-0.118378,0.105602,0.994408,-513.868,378.277)">
                                <path d="M1805.93,2126.21L1764.25,2256.75L2089.73,2468.61C2089.73,2468.61 2087.59,2253.11 2085.8,2258.21C2085.61,2258.75 1805.93,2126.21 1805.93,2126.21Z" style="fill:rgb(254,244,197);"/>
                            </g>
                            <g transform="matrix(1.41332,-0.150089,0.133891,1.26079,-2413.53,-188.641)">
                                <path d="M1760.77,2229.62C1761.14,2231.12 1726.73,2293.71 1726.73,2295.32C1726.73,2296.94 1786.62,2401.01 1786.62,2401.01C1786.62,2401.01 1760.07,2226.86 1760.77,2229.62Z" style="fill:rgb(254,244,197);"/>
                            </g>
                            <g transform="matrix(1,4.81482e-34,-4.81482e-34,1,-39.279,14.4023)">
                                <path d="M1389.74,2087.45L1200.91,2221.36L1456.75,2247.91L1686.76,2262.31L1648.99,2141.36C1642.37,2136.35 1645.74,2125.51 1650.26,2113.01C1663.85,2075.35 1687.83,2022.64 1480.55,2068.89" style="fill:rgb(254,244,197);"/>
                            </g>
                            <g transform="matrix(0.620244,2.40741e-34,-2.40741e-34,0.620244,1278.85,1155.48)">
                                <path d="M1330.57,2122.18L1755.46,2154.55L1285.62,2305.86L1308.92,2204.99L1330.57,2122.18Z" style="fill:rgb(254,244,197);"/>
                            </g>
                        </g>
                    </g>
                </g>
                <g transform="matrix(0.901108,1.95397e-19,3.90793e-19,0.901108,256.887,9.5638)">
                    <path d="M664.956,1969.36L789.339,1847.82L980.258,1795.17L1203.77,1869.74L1304.46,1984.23L1434.08,1962.95L1649.3,2090.9L1800.96,2014.36L1888.29,2004.05L2084.81,2060.12L2201.83,2175.47L2260.77,2376.53C2260.77,2376.53 2093.86,2749.01 1888.29,2749.01C1724.19,2749.01 1584.74,2642.68 1535.15,2495.23C1505.23,2637.47 1292.27,2699.76 1183.76,2699.76C1075.25,2699.76 882.369,2645.38 823.518,2505.6C757.54,2610.23 640.938,2679.79 508.216,2679.79C302.637,2679.79 135.733,2307.31 135.733,2307.31L149.345,2207.26L155.751,2186.62L297.793,1999.99L408.866,1948.25L508.216,1934.83L664.956,1969.36Z" style="fill:rgb(234,117,36);"/>
                    <clipPath id="_clip4">
                        <path d="M664.956,1969.36L789.339,1847.82L980.258,1795.17L1203.77,1869.74L1304.46,1984.23L1434.08,1962.95L1649.3,2090.9L1800.96,2014.36L1888.29,2004.05L2084.81,2060.12L2201.83,2175.47L2260.77,2376.53C2260.77,2376.53 2093.86,2749.01 1888.29,2749.01C1724.19,2749.01 1584.74,2642.68 1535.15,2495.23C1505.23,2637.47 1292.27,2699.76 1183.76,2699.76C1075.25,2699.76 882.369,2645.38 823.518,2505.6C757.54,2610.23 640.938,2679.79 508.216,2679.79C302.637,2679.79 135.733,2307.31 135.733,2307.31L149.345,2207.26L155.751,2186.62L297.793,1999.99L408.866,1948.25L508.216,1934.83L664.956,1969.36Z"/>
                    </clipPath>
                    <g clip-path="url(#_clip4)">
                        <g transform="matrix(-1.17707,0,0,1.17707,2726.08,-616.68)">
                            <path d="M568.645,2343.93L781.002,2274.39L694.829,2546.26L568.645,2343.93Z" style="fill:rgb(255,144,27);"/>
                        </g>
                        <g transform="matrix(-1.17707,0,0,1.17707,2726.08,-616.68)">
                            <path d="M781.389,2272.44L692.735,2560.75L841.637,2399.49L781.389,2272.44Z" style="fill:rgb(234,117,36);"/>
                        </g>
                        <g transform="matrix(-1.17707,0,0,1.17707,2726.08,-616.68)">
                            <path d="M988.396,2275.75L915.622,2310.49L693.65,2555.11L1082.54,2514.22L988.396,2275.75Z" style="fill:rgb(255,127,19);"/>
                        </g>
                        <g transform="matrix(-1.17707,0,0,1.17707,2726.08,-616.68)">
                            <path d="M780,2273.67L915.176,2311.18L837.7,2394.8L780,2273.67Z" style="fill:rgb(255,144,27);"/>
                        </g>
                        <g transform="matrix(-1.17707,0,0,1.17707,2726.08,-616.68)">
                            <path d="M1443.27,2234.56L1581.63,2490.27L1690.12,2267.95L1443.27,2234.56Z" style="fill:rgb(255,127,19);"/>
                        </g>
                        <g transform="matrix(-1.17707,0,0,1.17707,2726.08,-616.68)">
                            <path d="M1709.85,2228.99C1709.02,2229.43 1581.13,2489.5 1581.13,2489.5L1749.55,2525.77L1746.44,2245.34C1746.44,2245.34 1710.54,2228.62 1709.85,2228.99Z" style="fill:rgb(234,117,36);"/>
                        </g>
                        <g transform="matrix(-1.17707,-4.81482e-35,-9.62965e-35,1.17707,3149.89,-571.872)">
                            <path d="M1807.56,2232.79L1583.86,2223.8L1678.81,2413.15L1807.56,2232.79Z" style="fill:rgb(234,117,36);"/>
                        </g>
                        <g transform="matrix(-1.17707,0,0,1.17707,2726.08,-616.68)">
                            <path d="M1746.52,2531.84L1884.87,2219.31C1884.87,2219.31 1750.85,2161.38 1751.2,2164.84C1751.55,2168.3 1746.52,2531.84 1746.52,2531.84Z" style="fill:rgb(255,127,19);"/>
                        </g>
                        <g transform="matrix(-1.17707,0,0,1.17707,2726.08,-616.68)">
                            <path d="M1746.81,2529.58L1869.02,2208.69L2208.83,2392.08L1746.81,2529.58Z" style="fill:rgb(255,144,27);"/>
                        </g>
                        <g transform="matrix(-1.17707,0,0,1.17707,2726.08,-616.68)">
                            <path d="M1897.57,2227.07C1897.57,2227.07 2190.1,2219.09 2191.52,2217.26C2199.45,2207.03 2315.18,2450.93 2314.49,2451.39C2313.79,2451.86 1897.57,2227.07 1897.57,2227.07Z" style="fill:rgb(246,166,41);"/>
                        </g>
                        <g transform="matrix(-1.17707,0,0,1.17707,2726.08,-616.68)">
                            <path d="M1229.84,2264.8L1690.05,2268.12L1649.45,2141.15L1229.84,2264.8Z" style="fill:rgb(255,144,27);"/>
                        </g>
                        <g transform="matrix(-1.17707,0,0,1.17707,2726.08,-616.68)">
                            <path d="M1306.39,2461.39L1330.55,2426.81L1459.26,2263.8L1582.83,2488.82L1387.78,2645.63L1306.39,2461.39Z" style="fill:rgb(255,144,27);"/>
                        </g>
                        <g transform="matrix(-1.17707,0,0,1.17707,2726.08,-616.68)">
                            <path d="M1057.39,2237.61L1201.83,2467.8L1306.15,2461.96L1230.35,2264.43L1057.39,2237.61Z" style="fill:rgb(255,127,19);"/>
                        </g>
                        <g transform="matrix(-1.17707,0,0,1.17707,2726.08,-616.68)">
                            <path d="M1054.35,2232.88L1201.97,2465.82L1123.33,2625.7L1037.4,2427.25L983.378,2272.58L1054.35,2232.88Z" style="fill:rgb(255,144,27);"/>
                        </g>
                        <g transform="matrix(1,0,0,1,70.9459,5.86184)">
                            <path d="M1985.58,2135.6L1834.98,2378.31L2224.56,2408.18L2151.12,2167.03L1985.58,2135.6Z" style="fill:rgb(255,127,19);"/>
                        </g>
                        <g transform="matrix(-1.17707,5.29631e-34,-1.05926e-33,1.17707,2726.08,-616.68)">
                            <path d="M1628.19,2075.35L1689.92,2268.07L1744,2247.22L1755.62,2171.46L1628.19,2075.35Z" style="fill:rgb(255,150,0);"/>
                        </g>
                        <g transform="matrix(1,0,0,1,70.9459,5.86184)">
                            <path d="M1242.6,1955.2L1206.29,2043.2L1408.79,2013.86L1335.54,1922.21L1242.6,1955.2" style="fill:rgb(255,150,0);"/>
                        </g>
                        <g transform="matrix(1,0,0,1,70.9459,5.86184)">
                            <path d="M1728.2,1992.96L1736.6,2054.57L1581.53,2102.22L1570.44,2076.51L1728.2,1992.96Z" style="fill:rgb(255,150,0);"/>
                        </g>
                        <g transform="matrix(1,0,0,1,70.9459,5.86184)">
                            <path d="M463.976,1979.4L287.88,2071.09L210.064,1975.66L290.967,1929.61L351.956,1929.61L463.976,1979.4Z" style="fill:rgb(255,150,0);"/>
                        </g>
                        <g transform="matrix(1,0,0,1,70.9459,5.86184)">
                            <path d="M2013.59,2042.87L1984.13,2138.09L2154.55,2174.19L2082.05,2076.48L2013.59,2042.87Z" style="fill:rgb(242,149,26);"/>
                        </g>
                        <g transform="matrix(-1.17707,-3.37038e-34,-6.74075e-34,1.17707,2726.08,-616.68)">
                            <path d="M780.545,2274.54L794.684,2182.41L539.251,2248.92L569.566,2345.53L780.545,2274.54Z" style="fill:rgb(255,169,40);"/>
                        </g>
                        <g transform="matrix(1,0,0,1,70.9459,5.86184)">
                            <path d="M713.912,1898.5L1206.87,2043.39L1245.17,1962.69L1093.27,1758.24L729.881,1738.65L713.912,1898.5Z" style="fill:rgb(255,169,40);"/>
                        </g>
                        <g transform="matrix(1,0,0,1,70.9459,5.86184)">
                            <path d="M1409,2014.03L1343.66,1938.42L1557.03,1970.28L1581.7,2101.78L1409,2014.03Z" style="fill:rgb(255,169,40);"/>
                        </g>
                        <g transform="matrix(1,0,0,1,70.9459,5.86184)">
                            <path d="M587.887,1956.44L665.97,2047.29L290.967,1930.85L482.646,1907.2L590.621,1943.77" style="fill:rgb(255,169,40);"/>
                        </g>
                    </g>
                </g>
                <g transform="matrix(-0.633606,0.000769622,0.000769622,0.633606,2173.72,758.089)">
                    <path d="M664.956,1969.36L790.314,1847.24L980.258,1795.17L1304.46,1984.23L1429.79,1962.67L1649.3,2090.9L1797.78,2015.14L1888.29,2004.05L2081.71,2058.21L2208.78,2186.72L2260.77,2376.53C2260.77,2376.53 2093.86,2749.01 1888.29,2749.01C1724.19,2749.01 1584.74,2642.68 1535.15,2495.23C1505.23,2637.47 1292.27,2699.76 1183.76,2699.76C1075.25,2699.76 882.369,2645.38 823.518,2505.6C757.54,2610.23 640.938,2679.79 508.216,2679.79C302.637,2679.79 135.733,2307.31 135.733,2307.31L159.487,2176.23L230.099,2059.63L398.871,1951.16L508.216,1934.83L664.956,1969.36Z" style="fill:rgb(214,74,102);"/>
                    <clipPath id="_clip5">
                        <path d="M664.956,1969.36L790.314,1847.24L980.258,1795.17L1304.46,1984.23L1429.79,1962.67L1649.3,2090.9L1797.78,2015.14L1888.29,2004.05L2081.71,2058.21L2208.78,2186.72L2260.77,2376.53C2260.77,2376.53 2093.86,2749.01 1888.29,2749.01C1724.19,2749.01 1584.74,2642.68 1535.15,2495.23C1505.23,2637.47 1292.27,2699.76 1183.76,2699.76C1075.25,2699.76 882.369,2645.38 823.518,2505.6C757.54,2610.23 640.938,2679.79 508.216,2679.79C302.637,2679.79 135.733,2307.31 135.733,2307.31L159.487,2176.23L230.099,2059.63L398.871,1951.16L508.216,1934.83L664.956,1969.36Z"/>
                    </clipPath>
                    <g clip-path="url(#_clip5)">
                        <g transform="matrix(-1.17707,4.11997e-18,6.50521e-18,1.17707,2726.08,-616.68)">
                            <path d="M781.512,2272.36L699.792,2296.27L712.304,2490.52L781.512,2272.36Z" style="fill:rgb(203,52,90);"/>
                        </g>
                        <g transform="matrix(-1.17707,4.11997e-18,6.50521e-18,1.17707,2726.08,-616.68)">
                            <path d="M569.246,2344.66L703.63,2295.4L713.178,2487.37L569.246,2344.66Z" style="fill:rgb(214,74,102);"/>
                        </g>
                        <g transform="matrix(-1.17707,4.11997e-18,6.50521e-18,1.17707,2726.08,-616.68)">
                            <path d="M1775.05,2457.35L1866.66,2212.07L2041.75,2356.91L1775.05,2457.35Z" style="fill:rgb(214,74,102);"/>
                        </g>
                        <g transform="matrix(-1.25088,0.0984692,0.0984692,1.25088,2542.61,-929.218)">
                            <path d="M1403.18,2272.67L1287.01,2449.28L1191.49,2287.83L1403.18,2272.67Z" style="fill:rgb(214,74,102);"/>
                        </g>
                        <g transform="matrix(-1.25088,0.0984692,0.0984692,1.25088,2542.61,-929.218)">
                            <path d="M870.709,2552.7L903.344,2352.8L1219.21,2528.53L1095.48,2586.25L870.709,2552.7Z" style="fill:rgb(214,74,102);"/>
                        </g>
                        <g transform="matrix(-1.17707,1.04083e-17,-6.93889e-18,1.17707,2726.08,-616.68)">
                            <path d="M1777.61,2449.83L1867.91,2211.35C1867.91,2211.35 1743.15,2186.76 1743.5,2190.22C1743.85,2193.67 1777.61,2449.83 1777.61,2449.83Z" style="fill:rgb(204,43,88);"/>
                        </g>
                        <g transform="matrix(-1.17707,1.04083e-17,-6.93889e-18,1.17707,2726.08,-616.68)">
                            <path d="M1834.96,2186.42L2202.54,2278.32L2215.56,2502.59C2215.56,2502.59 1836.01,2186.42 1834.96,2186.42Z" style="fill:rgb(204,43,88);"/>
                        </g>
                        <g transform="matrix(-1.17707,1.04083e-17,-6.93889e-18,1.17707,2726.08,-616.68)">
                            <path d="M1306.39,2461.39L1330.55,2426.81L1458,2264.34L1561.39,2495.28L1387.78,2645.63L1306.39,2461.39Z" style="fill:rgb(204,43,88);"/>
                        </g>
                        <g transform="matrix(-1.17707,1.04083e-17,-6.93889e-18,1.17707,2726.08,-616.68)">
                            <path d="M1057.55,2238.18L1241.04,2522.92L1123.33,2625.7L912.064,2314.56L1057.55,2238.18Z" style="fill:rgb(204,43,88);"/>
                        </g>
                        <g transform="matrix(-1.25088,0.0984692,0.0984692,1.25088,2542.61,-929.218)">
                            <path d="M1619.55,2253.72L1526.92,2456.1L1681.26,2481L1686.6,2215.51L1619.55,2253.72Z" style="fill:rgb(204,43,88);"/>
                        </g>
                        <g transform="matrix(-1.17707,1.04083e-17,-6.93889e-18,1.17707,2726.08,-616.68)">
                            <path d="M781.389,2272.44L692.735,2560.75L883.286,2519.62L781.389,2272.44Z" style="fill:rgb(214,74,102);"/>
                        </g>
                        <g transform="matrix(-1.17707,0,4.33681e-19,1.17707,2726.08,-616.68)">
                            <path d="M781.055,2273.56L912.376,2312.31L878.616,2520.51L781.055,2273.56Z" style="fill:rgb(213,52,64);"/>
                        </g>
                        <g transform="matrix(-1.17707,0,4.33681e-19,1.17707,2726.08,-616.68)">
                            <path d="M1443.98,2234.48L1560.06,2495.35L1687.25,2267.41L1443.98,2234.48Z" style="fill:rgb(213,52,64);"/>
                        </g>
                        <g transform="matrix(-1.17707,0,4.33681e-19,1.17707,2726.08,-616.68)">
                            <path d="M1761.85,2243.13L1707.86,2505.63L1794.25,2525.26L1799.07,2392.96L1761.85,2243.13Z" style="fill:rgb(213,52,64);"/>
                        </g>
                        <g transform="matrix(-1.17707,0,4.33681e-19,1.17707,2726.08,-616.68)">
                            <path d="M1057.6,2238.14L1247.57,2540.98L1334.49,2523.13L1231.34,2264.76L1057.6,2238.14Z" style="fill:rgb(213,52,64);"/>
                        </g>
                        <g transform="matrix(1,2.1684e-19,2.1684e-19,1,70.9459,5.86184)">
                            <path d="M1984.74,2137.58L1818.43,2301.55L2291.12,2423.67L2195.11,2189.5L1984.74,2137.58Z" style="fill:rgb(213,52,64);"/>
                        </g>
                        <g transform="matrix(-1.17707,-6.50521e-19,-4.33681e-19,1.17707,2726.08,-616.68)">
                            <path d="M1626.57,2077.51L1687.02,2268.03L1760.52,2186.97L1685.46,2111.12L1626.57,2077.51Z" style="fill:rgb(214,74,102);"/>
                        </g>
                        <g transform="matrix(-1.17707,0,0,1.17707,2726.08,-616.68)">
                            <path d="M1230.85,2264.81L1687.12,2267.46L1646.72,2140.31L1230.85,2264.81Z" style="fill:rgb(255,80,110);"/>
                        </g>
                        <g transform="matrix(1,0,0,1,70.9459,5.86184)">
                            <path d="M1242.6,1955.2L1206.29,2043.2L1408.79,2013.86L1335.54,1922.21L1242.6,1955.2" style="fill:rgb(255,80,110);"/>
                        </g>
                        <g transform="matrix(1,0,0,1,70.9459,5.86184)">
                            <path d="M1728.2,1992.96L1735.87,2053.53L1581.38,2102.05L1576.42,2075.46L1728.2,1992.96Z" style="fill:rgb(255,80,110);"/>
                        </g>
                        <g transform="matrix(1,0,0,1,70.9459,5.86184)">
                            <path d="M463.975,1978.73L-32.495,2230.02L121.478,2004.57L290.967,1929.61L351.956,1929.61L463.975,1978.73Z" style="fill:rgb(255,80,110);"/>
                        </g>
                        <g transform="matrix(1,0,0,1,70.9459,5.86184)">
                            <path d="M2013.59,2042.87L1984.61,2137.6L2171.94,2189.68L2082.05,2076.48L2013.59,2042.87Z" style="fill:rgb(255,80,110);"/>
                        </g>
                        <g transform="matrix(1,4.33681e-19,-6.50521e-19,1,70.9459,5.86184)">
                            <path d="M589.146,1958.5L669.347,2046.61L290.967,1930.85L482.646,1907.2L590.621,1943.77" style="fill:rgb(255,111,116);"/>
                        </g>
                        <g transform="matrix(1,2.1684e-19,-4.33681e-19,1,70.9459,5.86184)">
                            <path d="M1409,2014.03L1343.66,1938.42L1555.04,1971.73L1581.7,2101.78L1409,2014.03Z" style="fill:rgb(255,111,116);"/>
                        </g>
                        <g transform="matrix(1,4.33681e-19,-6.50521e-19,1,70.9459,5.86184)">
                            <path d="M716.812,1897.34L1206.41,2043.13L1240.49,1960.35L1093.27,1758.24L729.881,1738.65L716.812,1897.34Z" style="fill:rgb(255,111,116);"/>
                        </g>
                        <g transform="matrix(-1.17707,-6.50521e-19,-6.50521e-19,1.17707,2726.08,-616.68)">
                            <path d="M781.052,2273.53L794.684,2182.41L539.251,2248.92L569.566,2344.92L781.052,2273.53Z" style="fill:rgb(255,111,116);"/>
                        </g>
                    </g>
                </g>
            </g>
        </g>
        <g transform="matrix(0.190476,0,0,0.190476,-14.4762,0)">
            <g transform="matrix(1.14575,2.22045e-16,-2.22045e-16,1.14575,-176.191,-269.183)">
                <path d="M1710.12,838.418L1739.92,936.447L1688.61,1160.62L1342.5,1417.27L1127.85,1384.46L1061.96,1421.23L1710.12,838.418Z" style="fill:rgb(240,142,41);"/>
            </g>
            <g transform="matrix(1.14575,0,0,1.14575,-110.846,-285.986)">
                <path d="M671.446,1345.62L454.874,1443.95L396.374,1691.64L644.063,1621.94L729.945,1405.37L671.446,1345.62" style="fill:none;"/>
                <clipPath id="_clip6">
                    <path d="M671.446,1345.62L454.874,1443.95L396.374,1691.64L644.063,1621.94L729.945,1405.37L671.446,1345.62"/>
                </clipPath>
                <g clip-path="url(#_clip6)">
                    <g id="i" transform="matrix(1.22171,0.131215,-0.0655142,0.609984,-1246.7,398.761)">
                        <path d="M1677.07,1394.56L1628.13,1193.03L1692.29,1298.28L1677.07,1394.56Z" style="fill:rgb(213,70,158);"/>
                    </g>
                    <g id="i1" serif:id="i" transform="matrix(1.22171,0.131215,-0.0655142,0.609984,-1246.7,398.761)">
                        <path d="M1621.17,1642.51L1611.42,1151.92L1697.77,1453.28L1651.27,1663.87L1621.17,1642.51Z" style="fill:rgb(210,71,107);"/>
                    </g>
                    <g transform="matrix(0.872788,0,0,0.872788,153.778,234.94)">
                        <path d="M464.019,1508.79L465.597,1510.58L242.891,1575L281.935,1406.68L558.104,1303.62L464.019,1508.79Z" style="fill:rgb(240,142,41);"/>
                    </g>
                    <g id="aa" transform="matrix(1.22171,0.131215,-0.0655142,0.609984,-1246.7,398.761)">
                        <path d="M1618.58,1189.59L1621.84,1642.18L1559.59,1554.96L1618.58,1189.59Z" style="fill:rgb(227,74,41);"/>
                    </g>
                    <g transform="matrix(1.22171,0.131215,-0.0655142,0.609984,-1218.7,304.761)">
                        <path d="M1545.55,1711.37L1291.76,1919.58L1428.33,1970.48L1545.55,1711.37Z" style="fill:rgb(234,117,36);"/>
                    </g>
                    <g transform="matrix(1.22171,0.131215,-0.0655142,0.609984,-1233.22,411.316)">
                        <path d="M1609.56,1623.43L1640.25,1647.28L1436.08,1847.87L1333.09,1872.72L1609.56,1623.43Z" style="fill:rgb(227,74,41);"/>
                    </g>
                    <g id="i2" serif:id="i" transform="matrix(1.22171,0.131215,-0.0655142,0.609984,-1246.7,398.761)">
                        <path d="M1559.81,1554.4L1621.57,1641.9L1442.32,1803.2L1559.81,1554.4Z" style="fill:rgb(230,93,39);"/>
                    </g>
                    <g transform="matrix(1.22171,0.131215,-0.0655142,0.609984,-1218.7,304.761)">
                        <path d="M1375.67,1607.21L1502.33,1339.2L1637.98,1438.89L1375.67,1607.21Z" style="fill:rgb(242,149,26);"/>
                    </g>
                </g>
            </g>
            <g transform="matrix(1.09779,-0.328042,0.328042,1.09779,-246.881,-66.6787)">
                <path d="M671.446,1345.62L454.874,1443.95L396.374,1691.64L644.063,1621.94L729.945,1405.37L671.446,1345.62" style="fill:none;"/>
                <clipPath id="_clip7">
                    <path d="M671.446,1345.62L454.874,1443.95L396.374,1691.64L644.063,1621.94L729.945,1405.37L671.446,1345.62"/>
                </clipPath>
                <g clip-path="url(#_clip7)">
                    <g id="i3" serif:id="i" transform="matrix(1.22171,0.131215,-0.0655142,0.609984,-1246.7,398.761)">
                        <path d="M1677.07,1394.56L1628.13,1193.03L1692.29,1298.28L1677.07,1394.56Z" style="fill:rgb(213,70,158);"/>
                    </g>
                    <g id="i4" serif:id="i" transform="matrix(1.22171,0.131215,-0.0655142,0.609984,-1246.7,398.761)">
                        <path d="M1621.17,1642.51L1611.42,1151.92L1697.77,1453.28L1651.27,1663.87L1621.17,1642.51Z" style="fill:rgb(210,71,107);"/>
                    </g>
                    <g transform="matrix(0.872788,0,0,0.872788,153.778,234.94)">
                        <path d="M464.019,1508.79L465.597,1510.58L242.891,1575L281.935,1406.68L558.104,1303.62L464.019,1508.79Z" style="fill:rgb(240,142,41);"/>
                    </g>
                    <g id="aa1" serif:id="aa" transform="matrix(1.22171,0.131215,-0.0655142,0.609984,-1246.7,398.761)">
                        <path d="M1618.58,1189.59L1621.84,1642.18L1559.59,1554.96L1618.58,1189.59Z" style="fill:rgb(227,74,41);"/>
                    </g>
                    <g transform="matrix(1.22171,0.131215,-0.0655142,0.609984,-1218.7,304.761)">
                        <path d="M1545.55,1711.37L1291.76,1919.58L1428.33,1970.48L1545.55,1711.37Z" style="fill:rgb(234,117,36);"/>
                    </g>
                    <g transform="matrix(1.22171,0.131215,-0.0655142,0.609984,-1233.22,411.316)">
                        <path d="M1609.56,1623.43L1640.25,1647.28L1436.08,1847.87L1333.09,1872.72L1609.56,1623.43Z" style="fill:rgb(227,74,41);"/>
                    </g>
                    <g id="i5" serif:id="i" transform="matrix(1.22171,0.131215,-0.0655142,0.609984,-1246.7,398.761)">
                        <path d="M1559.81,1554.4L1621.57,1641.9L1442.32,1803.2L1559.81,1554.4Z" style="fill:rgb(230,93,39);"/>
                    </g>
                    <g transform="matrix(1.22171,0.131215,-0.0655142,0.609984,-1218.7,304.761)">
                        <path d="M1375.67,1607.21L1502.33,1339.2L1637.98,1438.89L1375.67,1607.21Z" style="fill:rgb(242,149,26);"/>
                    </g>
                </g>
            </g>
            <g transform="matrix(0.9298,-0.669494,0.669494,0.9298,-502.276,818.482)">
                <path d="M1650.06,1138.94C1657.42,1151.45 1662.99,1183.67 1667.16,1222C1676.29,1305.91 1678.74,1419.13 1678.74,1419.13L1613.03,1681.59L1433.74,1847.6L1307.77,1866.92C1307.77,1866.92 1390.91,1795.68 1427.71,1706.59C1452.22,1647.24 1454.21,1544.18 1454.21,1544.18L1521.96,1347.47L1530.83,1233.02C1530.83,1233.02 1647.23,1134.12 1650.06,1138.94Z" style="fill:rgb(254,212,113);"/>
                <clipPath id="_clip8">
                    <path d="M1650.06,1138.94C1657.42,1151.45 1662.99,1183.67 1667.16,1222C1676.29,1305.91 1678.74,1419.13 1678.74,1419.13L1613.03,1681.59L1433.74,1847.6L1307.77,1866.92C1307.77,1866.92 1390.91,1795.68 1427.71,1706.59C1452.22,1647.24 1454.21,1544.18 1454.21,1544.18L1521.96,1347.47L1530.83,1233.02C1530.83,1233.02 1647.23,1134.12 1650.06,1138.94Z"/>
                </clipPath>
                <g clip-path="url(#_clip8)">
                    <g transform="matrix(1,0,0,1,-12.9297,-20.1519)">
                        <path d="M1625.82,1712.78L1616.72,1667.39L1611.42,1151.92L1697.77,1453.28L1625.82,1712.78Z" style="fill:rgb(254,222,101);"/>
                    </g>
                    <g transform="matrix(1,0,0,1,-12.9297,-20.1519)">
                        <path d="M1696.38,1453.97L1591.82,1104.93L1723.91,1194.55L1696.38,1453.97Z" style="fill:rgb(253,218,43);"/>
                    </g>
                    <g transform="matrix(1,0,0,1,-12.9297,-20.1519)">
                        <path d="M1488.62,1702.48L1465.16,1551.47L1220.84,1917.49L1368.08,1880.16L1488.62,1702.48Z" style="fill:rgb(240,142,41);"/>
                    </g>
                    <g transform="matrix(1,0,0,1,-12.9297,-20.1519)">
                        <path d="M1486.97,1700.03L1616.69,1667.37L1382.44,1858.5L1486.97,1700.03Z" style="fill:rgb(251,187,37);"/>
                    </g>
                    <g transform="matrix(1,0,0,1,-0.929746,-2.15189)">
                        <path d="M1604.69,1649.35L1615.43,1688.99L1433.91,1856.1L1301.6,1872.89L1370.39,1840.46L1604.69,1649.35Z" style="fill:rgb(246,166,41);"/>
                    </g>
                    <g transform="matrix(1,0,0,1,-31.9297,24.8481)">
                        <path d="M1635.99,1147.75L1505.97,1655.04L1635.7,1622.38L1635.99,1147.75Z" style="fill:rgb(254,197,9);"/>
                    </g>
                    <g transform="matrix(1,0,0,1,-12.3073,-24.5082)">
                        <path d="M1618.73,1190.53L1544.17,1237.1L1462.66,1541.02L1486.33,1704.42L1618.73,1190.53Z" style="fill:rgb(246,166,41);"/>
                    </g>
                </g>
            </g>
            <g transform="matrix(1.14504,-0.0405247,0.0405247,1.14504,-227.412,-245.05)">
                <path d="M1650.06,1138.94C1657.42,1151.45 1662.99,1183.67 1667.16,1222C1676.29,1305.91 1678.74,1419.13 1678.74,1419.13L1613.03,1681.59L1433.74,1847.6L1307.77,1866.92C1307.77,1866.92 1390.91,1795.68 1427.71,1706.59C1452.22,1647.24 1454.21,1544.18 1454.21,1544.18L1521.96,1347.47L1530.83,1233.02C1530.83,1233.02 1647.23,1134.12 1650.06,1138.94Z" style="fill:rgb(254,212,113);"/>
                <clipPath id="_clip9">
                    <path d="M1650.06,1138.94C1657.42,1151.45 1662.99,1183.67 1667.16,1222C1676.29,1305.91 1678.74,1419.13 1678.74,1419.13L1613.03,1681.59L1433.74,1847.6L1307.77,1866.92C1307.77,1866.92 1390.91,1795.68 1427.71,1706.59C1452.22,1647.24 1454.21,1544.18 1454.21,1544.18L1521.96,1347.47L1530.83,1233.02C1530.83,1233.02 1647.23,1134.12 1650.06,1138.94Z"/>
                </clipPath>
                <g clip-path="url(#_clip9)">
                    <g transform="matrix(1,0,0,1,-12.9297,-20.1519)">
                        <path d="M1602.09,1595.95L1621.69,1509.61L1664.63,1629.56L1631.96,1734.74L1602.09,1595.95Z" style="fill:rgb(248,177,52);"/>
                    </g>
                    <g transform="matrix(1,0,0,1,-12.9297,-20.1519)">
                        <path d="M1611.89,1672.04L1611.42,1151.92L1696.96,1458.96L1629.06,1732.82L1611.89,1672.04Z" style="fill:rgb(254,222,101);"/>
                    </g>
                    <g transform="matrix(1,0,0,1,-12.9297,-20.1519)">
                        <path d="M1698.04,1458.33L1591.82,1104.93L1723.91,1194.55L1698.04,1458.33Z" style="fill:rgb(253,218,43);"/>
                    </g>
                    <g transform="matrix(1,0,0,1,-12.3073,-24.5082)">
                        <path d="M1621.61,1190.37L1527.12,1265.27L1462.5,1542.79L1486.92,1702.47L1621.61,1190.37Z" style="fill:rgb(246,166,41);"/>
                    </g>
                    <g transform="matrix(1,0,0,1,-12.9297,-20.1519)">
                        <path d="M1492.12,1694.29L1220.84,1917.49L1369.93,1878.98L1492.12,1694.29Z" style="fill:rgb(234,117,36);"/>
                    </g>
                    <g transform="matrix(1,0,0,1,-12.9297,-20.1519)">
                        <path d="M1463.31,1533.53L1397.47,1798.7L1487.55,1698.09L1463.31,1533.53Z" style="fill:rgb(240,142,41);"/>
                    </g>
                    <g transform="matrix(1,0,0,1,-12.9297,-20.1519)">
                        <path d="M1487.55,1698.1L1616.2,1667.38L1383.18,1858.57L1487.55,1698.1Z" style="fill:rgb(246,166,41);"/>
                    </g>
                    <g transform="matrix(1,0,0,1,-0.929746,-2.15189)">
                        <path d="M1604.2,1649.38L1616.04,1690.2L1435.62,1854.98L1304.2,1871.09L1370.22,1840.61L1604.2,1649.38Z" style="fill:rgb(243,153,42);"/>
                    </g>
                    <g transform="matrix(1,0,0,1,-31.9297,24.8481)">
                        <path d="M1636.46,1155.11L1506.55,1653.1L1635.2,1622.38L1636.46,1155.11Z" style="fill:rgb(254,197,9);"/>
                    </g>
                </g>
            </g>
            <g transform="matrix(1.14575,0,0,1.14575,-169.622,-284.84)">
                <path d="M1648.82,1081.75L1771.73,1008.32L1927.32,997.113L2033.27,888.257L2080.41,825.349L1944.74,743.201L1826.5,785.52L1669.67,872.646L1625.84,969.38L1648.82,1081.75Z" style="fill:none;"/>
                <clipPath id="_clip10">
                    <path d="M1648.82,1081.75L1771.73,1008.32L1927.32,997.113L2033.27,888.257L2080.41,825.349L1944.74,743.201L1826.5,785.52L1669.67,872.646L1625.84,969.38L1648.82,1081.75Z"/>
                </clipPath>
                <g clip-path="url(#_clip10)">
                    <g transform="matrix(1,0,0,1,-31,15)">
                        <path d="M2128.88,814.075L1952.45,777.669L1976.98,720.61L2128.88,814.075Z" style="fill:rgb(254,222,101);"/>
                    </g>
                    <g transform="matrix(1,0,0,1,-31,15)">
                        <path d="M1954.63,773.935L1781.87,1005.46L2116.3,811.544L1954.63,773.935Z" style="fill:rgb(254,197,9);"/>
                    </g>
                    <g transform="matrix(1,0,0,1,-31,15)">
                        <path d="M1977.85,723.482L1954.63,774.161L1854.67,771.015L1977.85,723.482Z" style="fill:rgb(254,244,197);"/>
                    </g>
                    <g transform="matrix(1,0,0,1,-31,15)">
                        <path d="M1955.13,774.003L1854.79,770.001L1701.83,847.143L1657.78,969.037L1955.13,774.003Z" style="fill:rgb(255,233,156);"/>
                    </g>
                    <g transform="matrix(1,0,0,1,-31,15)">
                        <path d="M2141.98,792.154L2049.47,907.651L1963.34,988.018L1789.96,1000.85L2141.98,792.154Z" style="fill:rgb(251,187,37);"/>
                    </g>
                    <g transform="matrix(1,0,0,1,-31,15)">
                        <path d="M1954.43,774.161L1792.7,1007.52L1680.49,1067.37L1658.4,955.656L1954.43,774.161Z" style="fill:rgb(253,218,43);"/>
                    </g>
                </g>
            </g>
            <g transform="matrix(1.14575,0,0,1.14575,-188.602,-260.852)">
                <path d="M1912.43,793.431L1948.96,781.676L1973.22,796.969L1984.68,822.86L1977.5,839.95L1955.47,858.083L1909.55,850.52L1894.95,822.86L1912.43,793.431Z" style="fill:rgb(254,197,9);"/>
                <clipPath id="_clip11">
                    <path d="M1912.43,793.431L1948.96,781.676L1973.22,796.969L1984.68,822.86L1977.5,839.95L1955.47,858.083L1909.55,850.52L1894.95,822.86L1912.43,793.431Z"/>
                </clipPath>
                <g clip-path="url(#_clip11)">
                    <g transform="matrix(0.872788,0,0,0.872788,162.98,246.116)">
                        <path d="M1998.91,694.889L2040.51,648.262L2081.26,679.331L2075.04,699.453L2036.76,715.598L1998.91,694.889Z" style="fill:rgb(241,154,37);"/>
                    </g>
                    <g transform="matrix(0.872788,0,0,0.872788,162.98,246.116)">
                        <path d="M1999.64,623.518L2040.51,648.262L1981.27,662.113L1985.63,637.427L1999.64,623.518Z" style="fill:rgb(254,197,9);"/>
                    </g>
                    <g transform="matrix(0.872788,0,0,0.872788,162.98,246.116)">
                        <path d="M2040.51,648.262L2049.73,593.241L1999.57,624.014L2040.51,648.262Z" style="fill:rgb(255,233,156);"/>
                    </g>
                    <g transform="matrix(0.872788,0,0,0.872788,162.98,246.116)">
                        <path d="M2040.51,648.262L2090.18,661.075L2078.98,680.368L2040.51,648.262Z" style="fill:rgb(251,187,37);"/>
                    </g>
                    <g transform="matrix(0.872788,0,0,0.872788,162.98,246.116)">
                        <path d="M2040.51,648.262L2047.24,606.31L2074,623.735L2089.3,661.476L2040.51,648.262Z" style="fill:rgb(254,222,101);"/>
                    </g>
                    <g id="i6" serif:id="i" transform="matrix(0.872788,0,0,0.872788,162.98,238.261)">
                        <path d="M2040.51,657.262L1981.65,670.466L1999.52,703.471L2040.51,657.262Z" style="fill:rgb(246,166,41);"/>
                    </g>
                </g>
            </g>
            <g id="Turtle-Outline" serif:id="Turtle Outline" transform="matrix(1.14575,0,0,1.14575,-176.191,-269.183)">
                <path d="M1723.33,832.475C1722.67,832.598 1534.65,762.94 1534.65,762.94L1357.28,735.165L1081.1,784.061L924.25,894.323L788.324,1058.47L663.183,1221.82L554.868,1245.18L672.528,1398.28L949.195,1476.33L1347.03,1417.53L1676.14,1115.45C1676.14,1115.45 1647.11,995.424 1661.73,932.234C1681.88,845.182 1726.58,831.86 1723.33,832.475Z" style="fill:rgb(254,212,113);"/>
                <clipPath id="_clip12">
                    <path d="M1723.33,832.475C1722.67,832.598 1534.65,762.94 1534.65,762.94L1357.28,735.165L1081.1,784.061L924.25,894.323L788.324,1058.47L663.183,1221.82L554.868,1245.18L672.528,1398.28L949.195,1476.33L1347.03,1417.53L1676.14,1115.45C1676.14,1115.45 1647.11,995.424 1661.73,932.234C1681.88,845.182 1726.58,831.86 1723.33,832.475Z"/>
                </clipPath>
                <g clip-path="url(#_clip12)">
                    <g>
                        <path d="M1612.42,949.349L1679.84,1125.69L1703.42,1088.84L1682.54,796.03L1612.42,949.349Z" style="fill:rgb(255,207,7);"/>
                        <path d="M1615.19,942.242L1681.52,1130.73L1633.58,1153.48L1555.41,1084.42L1615.19,942.242Z" style="fill:rgb(254,197,9);"/>
                        <path d="M1469.8,1245.7L1564.43,1111.86L1702.17,1118.28L1469.8,1245.7Z" style="fill:rgb(246,166,41);"/>
                        <path d="M517.885,1222.87L588.676,1325.55L668.186,1294.64L517.885,1222.87Z" style="fill:rgb(227,74,41);"/>
                        <path d="M646.208,1402.9L761.842,1382.59L828.619,1401.99L757.328,1448.46L646.208,1402.9Z" style="fill:rgb(227,74,41);"/>
                        <path d="M1459.43,1251.22L1638.78,1153.17L1445.65,1364.96L1459.43,1251.22Z" style="fill:rgb(240,142,41);"/>
                        <path d="M1203.35,1407.05L1300.55,1389.69L1141.6,1466.54L1203.35,1407.05Z" style="fill:rgb(234,117,36);"/>
                        <path d="M831.338,1406.4L1021.82,1416.1L952.522,1478.29L831.338,1406.4Z" style="fill:rgb(213,69,106);"/>
                        <path d="M1295.61,1391.19L1414.36,1281.9L1330.48,1452.06L1156.24,1452.81L1295.61,1391.19Z" style="fill:rgb(230,93,39);"/>
                        <path d="M1014.54,1418.9L947.763,1477.09L1108.33,1484.56L1014.54,1418.9Z" style="fill:rgb(230,93,39);"/>
                        <path d="M1000.78,1409.63L1133.42,1510.89L1200.15,1408.84L1000.78,1409.63Z" style="fill:rgb(227,74,41);"/>
                        <path d="M751.416,1437.1L820.243,1399.77L953.889,1478.73L808.36,1473.36L751.416,1437.1Z" style="fill:rgb(227,74,41);"/>
                        <path d="M1448.74,1352.62L1336.11,1439.7L1383.25,1342.35L1459.94,1250.56L1448.74,1352.62Z" style="fill:rgb(236,126,36);"/>
                        <path d="M586.809,1323.99L762.101,1382.89L640.187,1404.09L586.809,1323.99Z" style="fill:rgb(234,117,36);"/>
                        <path d="M753.923,1384.46L671.342,1293.17L585.564,1322.75L753.923,1384.46Z" style="fill:rgb(230,93,39);"/>
                        <path d="M671.863,1296.62L665.223,1207L523.563,1231.18L671.863,1296.62Z" style="fill:rgb(230,93,39);"/>
                        <path d="M1677.76,968.33L1686.59,746.059L1742.23,788.793L1677.76,968.33Z" style="fill:rgb(253,218,43);"/>
                    </g>
                    <g>
                        <path d="M1312.46,883.385L1524.46,846.565L1595.76,1113.29L1312.46,883.385Z" style="fill:rgb(254,222,101);"/>
                        <path d="M1595.76,1113.29L1490.52,1233.81L1448.19,1065.38L1312.46,883.385L1595.76,1113.29Z" style="fill:rgb(254,197,9);"/>
                        <path d="M1524.46,846.565L1616.77,944.993L1644.73,1025L1595.75,1113.27L1524.46,846.565Z" style="fill:rgb(253,218,43);"/>
                        <path d="M1049.53,950.614L1187.8,859.232L1312.46,883.385L1270.44,1134.96L1295.61,1391.19L1049.53,950.614Z" style="fill:rgb(246,174,41);"/>
                        <g transform="matrix(0.790593,0.612342,-0.612342,0.790593,293.058,-435.394)">
                            <path d="M1348.95,927.249L1478.59,1156.71L1355.3,1138.49L1298.8,1073.68L1348.95,927.249Z" style="fill:rgb(227,78,41);"/>
                        </g>
                        <g transform="matrix(1,0,0,1,-31,15)">
                            <path d="M1343.46,868.385L1295.58,1122.13L1326.61,1376.19L1407.81,1340.52L1521.58,1218.77L1486.59,1054.66L1343.46,868.385Z" style="fill:rgb(251,187,55);"/>
                        </g>
                        <path d="M1049.53,950.614L1042.98,1178.57L1014.03,1419.72L791.739,1123.7L1049.53,950.614Z" style="fill:rgb(234,117,36);"/>
                        <path d="M1049.53,950.614L1140.58,1184.77L1197.79,1412.65L1014.03,1419.72L1049.53,950.614Z" style="fill:rgb(236,129,36);"/>
                        <g transform="matrix(0.872788,0,0,0.872788,153.778,234.94)">
                            <path d="M1026.31,819.985L1196.18,1349.37L1308.26,1324.78L1026.31,819.985Z" style="fill:rgb(243,149,42);"/>
                        </g>
                        <g transform="matrix(0.872788,0,0,0.872788,153.778,234.94)">
                            <path d="M730.945,1018.3L853.101,1112.12L985.638,1357.46L780.969,1344.59L687.125,1317.02L692.175,1185.97L730.945,1018.3Z" style="fill:rgb(230,97,39);"/>
                        </g>
                        <g transform="matrix(0.872788,0,0,0.872788,153.778,234.94)">
                            <path d="M1570.47,700.771L1769.86,638.236L1676.34,813.684L1570.47,700.771Z" style="fill:rgb(254,222,101);"/>
                        </g>
                    </g>
                    <g>
                        <path d="M1183.33,725.727L1049.53,950.614L1188.31,858.704L1312.46,883.385L1183.33,725.727Z" style="fill:rgb(255,207,7);"/>
                        <g transform="matrix(1,0,0,1,-31,15)">
                            <path d="M1555.46,831.564L1756.37,796.994L1551.67,712.635L1555.46,831.564Z" style="fill:rgb(255,233,157);"/>
                        </g>
                        <g transform="matrix(1,0,0,1,-31,15)">
                            <path d="M1390.97,709.704L1343.46,868.385L1223.61,722.66L1390.97,709.704Z" style="fill:rgb(254,222,101);"/>
                        </g>
                        <g transform="matrix(1,0,0,1,-283.668,74.1218)">
                            <path d="M1506.24,626.441L1333.19,876.492L1168.01,802.11L1506.24,626.441Z" style="fill:rgb(247,194,37);"/>
                        </g>
                        <g transform="matrix(0.812094,-0.583526,0.583526,0.812094,-716.689,1206.33)">
                            <path d="M1513.28,698.686L1583.55,822.97L1387.99,730.682L1513.28,698.686Z" style="fill:rgb(244,176,32);"/>
                        </g>
                        <g transform="matrix(0.812094,-0.583526,0.583526,0.812094,-716.689,1206.33)">
                            <path d="M1415.4,723.84L1273.2,813.109L1304.12,751.673L1415.4,723.84Z" style="fill:rgb(234,117,36);"/>
                        </g>
                        <g transform="matrix(0.712134,-0.702043,0.702043,0.712134,-834.854,1647.81)">
                            <path d="M1567.82,712.723L1554.61,730.367L1526.3,768.707L1381.26,743.126L1567.82,712.723Z" style="fill:rgb(236,126,36);"/>
                        </g>
                        <g transform="matrix(0.872788,0,0,0.872788,153.778,234.94)">
                            <path d="M793.826,862.089L730.946,1018.3L1026.31,819.985L793.826,862.089Z" style="fill:rgb(240,142,41);"/>
                        </g>
                        <g transform="matrix(0.872788,0,0,0.872788,153.778,234.94)">
                            <path d="M1378.95,571.252L1327.56,742.958L1570.47,700.771L1378.95,571.252Z" style="fill:rgb(255,233,157);"/>
                        </g>
                        <g transform="matrix(1,0,0,1,-31,15)">
                            <path d="M1566.47,731.388L1555.46,831.565L1378.44,713.461L1566.47,731.388Z" style="fill:rgb(255,245,198);"/>
                        </g>
                    </g>
                </g>
            </g>
        </g>
    </g>
    <g transform="matrix(1.25851,0,0,1.25851,-2.00975,-2.00975)">
        <path d="M236.22,1.538C365.745,1.538 470.903,106.696 470.903,236.22C470.903,365.745 365.745,470.903 236.22,470.903C106.696,470.903 1.538,365.745 1.538,236.22C1.538,106.696 106.696,1.538 236.22,1.538ZM236.22,45.786C341.324,45.786 426.655,131.117 426.655,236.22C426.655,341.324 341.324,426.655 236.22,426.655C131.117,426.655 45.786,341.324 45.786,236.22C45.786,131.117 131.117,45.786 236.22,45.786Z" style="fill:rgb(233,242,247);"/>
    </g>
    <g transform="matrix(0.893403,0,0,0.893403,31.4754,29.9862)">
        <g transform="matrix(1.41391,0,0,1.41391,-86.0944,-62.192)">
            <g transform="matrix(22.9054,-10.0171,10.0171,22.9054,180.556,72.9938)">
                <path d="M0.675,-0L0.524,-0L0.524,-0.308L0.241,-0.308L0.241,-0L0.09,-0L0.09,-0.714L0.241,-0.714L0.241,-0.434L0.524,-0.434L0.524,-0.714L0.675,-0.714L0.675,-0Z" style="fill:rgb(42,99,126);fill-rule:nonzero;"/>
            </g>
            <g transform="matrix(23.8323,-7.55115,7.55115,23.8323,199.473,64.7844)">
                <path d="M0.738,-0.358C0.738,-0.24 0.708,-0.149 0.65,-0.085C0.591,-0.022 0.507,0.01 0.398,0.01C0.289,0.01 0.205,-0.022 0.146,-0.085C0.087,-0.149 0.058,-0.24 0.058,-0.359C0.058,-0.478 0.087,-0.568 0.146,-0.631C0.205,-0.694 0.289,-0.725 0.399,-0.725C0.509,-0.725 0.593,-0.694 0.651,-0.63C0.709,-0.567 0.738,-0.476 0.738,-0.358ZM0.217,-0.358C0.217,-0.278 0.232,-0.218 0.262,-0.178C0.292,-0.137 0.338,-0.117 0.398,-0.117C0.519,-0.117 0.579,-0.197 0.579,-0.358C0.579,-0.519 0.519,-0.599 0.399,-0.599C0.339,-0.599 0.293,-0.579 0.263,-0.538C0.232,-0.498 0.217,-0.438 0.217,-0.358Z" style="fill:rgb(42,99,126);fill-rule:nonzero;"/>
            </g>
            <g transform="matrix(24.5505,-4.71921,4.71921,24.5505,219.934,58.2857)">
                <path d="M0.392,-0L0.22,-0.56L0.216,-0.56C0.222,-0.446 0.225,-0.37 0.225,-0.332L0.225,-0L0.09,-0L0.09,-0.714L0.296,-0.714L0.465,-0.168L0.468,-0.168L0.647,-0.714L0.853,-0.714L0.853,-0L0.712,-0L0.712,-0.338C0.712,-0.354 0.712,-0.372 0.713,-0.393C0.713,-0.414 0.715,-0.469 0.719,-0.559L0.715,-0.559L0.531,-0L0.392,-0Z" style="fill:rgb(42,99,126);fill-rule:nonzero;"/>
            </g>
            <g transform="matrix(24.9061,-2.16527,2.16527,24.9061,244.612,53.854)">
                <path d="M0.501,-0L0.09,-0L0.09,-0.714L0.501,-0.714L0.501,-0.59L0.241,-0.59L0.241,-0.433L0.483,-0.433L0.483,-0.309L0.241,-0.309L0.241,-0.125L0.501,-0.125L0.501,-0Z" style="fill:rgb(42,99,126);fill-rule:nonzero;"/>
            </g>
            <g transform="matrix(24.9786,1.03498,-1.03498,24.9786,268.032,52.2165)">
                <path d="M0.738,-0.358C0.738,-0.24 0.708,-0.149 0.65,-0.085C0.591,-0.022 0.507,0.01 0.398,0.01C0.289,0.01 0.205,-0.022 0.146,-0.085C0.087,-0.149 0.058,-0.24 0.058,-0.359C0.058,-0.478 0.087,-0.568 0.146,-0.631C0.205,-0.694 0.289,-0.725 0.399,-0.725C0.509,-0.725 0.593,-0.694 0.651,-0.63C0.709,-0.567 0.738,-0.476 0.738,-0.358ZM0.217,-0.358C0.217,-0.278 0.232,-0.218 0.262,-0.178C0.292,-0.137 0.338,-0.117 0.398,-0.117C0.519,-0.117 0.579,-0.197 0.579,-0.358C0.579,-0.519 0.519,-0.599 0.399,-0.599C0.339,-0.599 0.293,-0.579 0.263,-0.538C0.232,-0.498 0.217,-0.438 0.217,-0.358Z" style="fill:rgb(42,99,126);fill-rule:nonzero;"/>
            </g>
            <g transform="matrix(24.773,3.36154,-3.36154,24.773,289.425,53.2935)">
                <path d="M0.239,-0L0.09,-0L0.09,-0.714L0.499,-0.714L0.499,-0.59L0.239,-0.59L0.239,-0.406L0.481,-0.406L0.481,-0.282L0.239,-0.282L0.239,-0Z" style="fill:rgb(42,99,126);fill-rule:nonzero;"/>
            </g>
            <g transform="matrix(24.4452,5.23749,-5.23749,24.4452,304.506,55.3586)">
                <path d="M0.239,-0L0.09,-0L0.09,-0.714L0.499,-0.714L0.499,-0.59L0.239,-0.59L0.239,-0.406L0.481,-0.406L0.481,-0.282L0.239,-0.282L0.239,-0Z" style="fill:rgb(42,99,126);fill-rule:nonzero;"/>
            </g>
            <g transform="matrix(24.0854,6.70043,-6.70043,24.0854,319.366,58.6569)">
                <rect x="0.09" y="-0.714" width="0.151" height="0.714" style="fill:rgb(42,99,126);fill-rule:nonzero;"/>
            </g>
            <g transform="matrix(23.5586,8.36615,-8.36615,23.5586,328.833,61.1967)">
                <path d="M0.393,-0.598C0.336,-0.598 0.292,-0.577 0.261,-0.534C0.229,-0.491 0.214,-0.431 0.214,-0.355C0.214,-0.196 0.274,-0.116 0.393,-0.116C0.443,-0.116 0.504,-0.129 0.575,-0.154L0.575,-0.027C0.517,-0.002 0.451,0.01 0.379,0.01C0.275,0.01 0.196,-0.022 0.141,-0.085C0.086,-0.148 0.058,-0.238 0.058,-0.356C0.058,-0.43 0.072,-0.495 0.099,-0.551C0.126,-0.607 0.164,-0.65 0.215,-0.679C0.266,-0.709 0.325,-0.724 0.393,-0.724C0.462,-0.724 0.532,-0.707 0.602,-0.674L0.553,-0.551C0.527,-0.563 0.5,-0.575 0.473,-0.584C0.446,-0.593 0.419,-0.598 0.393,-0.598Z" style="fill:rgb(42,99,126);fill-rule:nonzero;"/>
            </g>
            <g transform="matrix(22.7832,10.292,-10.292,22.7832,345.23,67.099)">
                <path d="M0.501,-0L0.09,-0L0.09,-0.714L0.501,-0.714L0.501,-0.59L0.241,-0.59L0.241,-0.433L0.483,-0.433L0.483,-0.309L0.241,-0.309L0.241,-0.125L0.501,-0.125L0.501,-0Z" style="fill:rgb(42,99,126);fill-rule:nonzero;"/>
            </g>
        </g>
        <g transform="matrix(1.55288,0,0,1.55288,-123.243,-97.3593)">
            <g transform="matrix(18.665,12.8812,-12.8812,18.665,149.512,413.946)">
                <path d="M0.241,-0.378L0.291,-0.378C0.338,-0.378 0.372,-0.387 0.396,-0.406C0.419,-0.424 0.43,-0.451 0.43,-0.486C0.43,-0.521 0.42,-0.548 0.401,-0.564C0.382,-0.581 0.351,-0.59 0.31,-0.59L0.241,-0.59L0.241,-0.378ZM0.583,-0.491C0.583,-0.414 0.559,-0.356 0.511,-0.315C0.463,-0.274 0.395,-0.254 0.306,-0.254L0.241,-0.254L0.241,-0L0.09,-0L0.09,-0.714L0.318,-0.714C0.404,-0.714 0.47,-0.695 0.515,-0.658C0.56,-0.621 0.583,-0.565 0.583,-0.491Z" style="fill:rgb(42,99,126);fill-rule:nonzero;"/>
            </g>
            <g transform="matrix(19.6617,11.3014,-11.3014,19.6617,162.354,422.839)">
                <path d="M0.671,-0.714L0.671,-0.252C0.671,-0.199 0.659,-0.153 0.635,-0.113C0.612,-0.074 0.578,-0.043 0.533,-0.022C0.489,-0.001 0.436,0.01 0.375,0.01C0.283,0.01 0.212,-0.014 0.161,-0.061C0.11,-0.108 0.085,-0.172 0.085,-0.254L0.085,-0.714L0.236,-0.714L0.236,-0.277C0.236,-0.222 0.247,-0.181 0.269,-0.156C0.291,-0.13 0.328,-0.117 0.379,-0.117C0.428,-0.117 0.464,-0.13 0.487,-0.156C0.509,-0.182 0.52,-0.222 0.52,-0.278L0.52,-0.714L0.671,-0.714Z" style="fill:rgb(42,99,126);fill-rule:nonzero;"/>
            </g>
            <g transform="matrix(20.5955,9.49366,-9.49366,20.5955,178.432,431.983)">
                <path d="M0.09,-0.714L0.312,-0.714C0.413,-0.714 0.487,-0.699 0.532,-0.671C0.578,-0.642 0.601,-0.596 0.601,-0.533C0.601,-0.491 0.591,-0.456 0.571,-0.428C0.551,-0.401 0.524,-0.384 0.491,-0.379L0.491,-0.374C0.536,-0.364 0.569,-0.345 0.589,-0.317C0.609,-0.29 0.619,-0.253 0.619,-0.207C0.619,-0.142 0.596,-0.091 0.549,-0.055C0.502,-0.018 0.438,-0 0.357,-0L0.09,-0L0.09,-0.714ZM0.241,-0.431L0.329,-0.431C0.37,-0.431 0.4,-0.438 0.418,-0.45C0.437,-0.463 0.446,-0.484 0.446,-0.513C0.446,-0.541 0.436,-0.56 0.416,-0.572C0.396,-0.584 0.364,-0.59 0.321,-0.59L0.241,-0.59L0.241,-0.431ZM0.241,-0.311L0.241,-0.125L0.34,-0.125C0.382,-0.125 0.412,-0.133 0.432,-0.149C0.452,-0.165 0.462,-0.189 0.462,-0.222C0.462,-0.281 0.42,-0.311 0.335,-0.311L0.241,-0.311Z" style="fill:rgb(42,99,126);fill-rule:nonzero;"/>
            </g>
            <g transform="matrix(21.2741,7.85623,-7.85623,21.2741,193.525,438.876)">
                <path d="M0.09,-0L0.09,-0.714L0.241,-0.714L0.241,-0.125L0.531,-0.125L0.531,-0L0.09,-0Z" style="fill:rgb(42,99,126);fill-rule:nonzero;"/>
            </g>
            <g transform="matrix(21.6715,6.68219,-6.68219,21.6715,206.841,443.695)">
                <rect x="0.09" y="-0.714" width="0.151" height="0.714" style="fill:rgb(42,99,126);fill-rule:nonzero;"/>
            </g>
            <g transform="matrix(22.0513,5.29564,-5.29564,22.0513,215.315,446.386)">
                <path d="M0.393,-0.598C0.336,-0.598 0.292,-0.577 0.261,-0.534C0.229,-0.491 0.214,-0.431 0.214,-0.355C0.214,-0.196 0.274,-0.116 0.393,-0.116C0.443,-0.116 0.504,-0.129 0.575,-0.154L0.575,-0.027C0.517,-0.002 0.451,0.01 0.379,0.01C0.275,0.01 0.196,-0.022 0.141,-0.085C0.086,-0.148 0.058,-0.238 0.058,-0.356C0.058,-0.43 0.072,-0.495 0.099,-0.551C0.126,-0.607 0.164,-0.65 0.215,-0.679C0.266,-0.709 0.325,-0.724 0.393,-0.724C0.462,-0.724 0.532,-0.707 0.602,-0.674L0.553,-0.551C0.527,-0.563 0.5,-0.575 0.473,-0.584C0.446,-0.593 0.419,-0.598 0.393,-0.598Z" style="fill:rgb(42,99,126);fill-rule:nonzero;"/>
            </g>
            <g transform="matrix(22.5145,2.72126,-2.72126,22.5145,237.829,451.311)">
                <path d="M0.393,-0.598C0.336,-0.598 0.292,-0.577 0.261,-0.534C0.229,-0.491 0.214,-0.431 0.214,-0.355C0.214,-0.196 0.274,-0.116 0.393,-0.116C0.443,-0.116 0.504,-0.129 0.575,-0.154L0.575,-0.027C0.517,-0.002 0.451,0.01 0.379,0.01C0.275,0.01 0.196,-0.022 0.141,-0.085C0.086,-0.148 0.058,-0.238 0.058,-0.356C0.058,-0.43 0.072,-0.495 0.099,-0.551C0.126,-0.607 0.164,-0.65 0.215,-0.679C0.266,-0.709 0.325,-0.724 0.393,-0.724C0.462,-0.724 0.532,-0.707 0.602,-0.674L0.553,-0.551C0.527,-0.563 0.5,-0.575 0.473,-0.584C0.446,-0.593 0.419,-0.598 0.393,-0.598Z" style="fill:rgb(42,99,126);fill-rule:nonzero;"/>
            </g>
            <g transform="matrix(22.6564,0.997192,-0.997192,22.6564,253.555,453.16)">
                <path d="M0.09,-0L0.09,-0.714L0.241,-0.714L0.241,-0.125L0.531,-0.125L0.531,-0L0.09,-0Z" style="fill:rgb(42,99,126);fill-rule:nonzero;"/>
            </g>
            <g transform="matrix(22.6642,-0.799729,0.799729,22.6642,267.707,453.858)">
                <path d="M0.738,-0.358C0.738,-0.24 0.708,-0.149 0.65,-0.085C0.591,-0.022 0.507,0.01 0.398,0.01C0.289,0.01 0.205,-0.022 0.146,-0.085C0.087,-0.149 0.058,-0.24 0.058,-0.359C0.058,-0.478 0.087,-0.568 0.146,-0.631C0.205,-0.694 0.289,-0.725 0.399,-0.725C0.509,-0.725 0.593,-0.694 0.651,-0.63C0.709,-0.567 0.738,-0.476 0.738,-0.358ZM0.217,-0.358C0.217,-0.278 0.232,-0.218 0.262,-0.178C0.292,-0.137 0.338,-0.117 0.398,-0.117C0.519,-0.117 0.579,-0.197 0.579,-0.358C0.579,-0.519 0.519,-0.599 0.399,-0.599C0.339,-0.599 0.293,-0.579 0.263,-0.538C0.232,-0.498 0.217,-0.438 0.217,-0.358Z" style="fill:rgb(42,99,126);fill-rule:nonzero;"/>
            </g>
            <g transform="matrix(22.4888,-2.92533,2.92533,22.4888,287.124,453.088)">
                <path d="M0.671,-0.714L0.671,-0.252C0.671,-0.199 0.659,-0.153 0.635,-0.113C0.612,-0.074 0.578,-0.043 0.533,-0.022C0.489,-0.001 0.436,0.01 0.375,0.01C0.283,0.01 0.212,-0.014 0.161,-0.061C0.11,-0.108 0.085,-0.172 0.085,-0.254L0.085,-0.714L0.236,-0.714L0.236,-0.277C0.236,-0.222 0.247,-0.181 0.269,-0.156C0.291,-0.13 0.328,-0.117 0.379,-0.117C0.428,-0.117 0.464,-0.13 0.487,-0.156C0.509,-0.182 0.52,-0.222 0.52,-0.278L0.52,-0.714L0.671,-0.714Z" style="fill:rgb(42,99,126);fill-rule:nonzero;"/>
            </g>
            <g transform="matrix(22.1168,-5.01528,5.01528,22.1168,305.488,450.644)">
                <path d="M0.682,-0.364C0.682,-0.246 0.649,-0.156 0.582,-0.094C0.515,-0.031 0.418,-0 0.292,-0L0.09,-0L0.09,-0.714L0.314,-0.714C0.431,-0.714 0.521,-0.683 0.585,-0.622C0.65,-0.56 0.682,-0.474 0.682,-0.364ZM0.525,-0.36C0.525,-0.513 0.457,-0.59 0.322,-0.59L0.241,-0.59L0.241,-0.125L0.306,-0.125C0.452,-0.125 0.525,-0.203 0.525,-0.36Z" style="fill:rgb(42,99,126);fill-rule:nonzero;"/>
            </g>
            <g transform="matrix(21.3825,-7.55623,7.55623,21.3825,330.128,444.453)">
                <path d="M0.365,-0L0.214,-0L0.214,-0.588L0.02,-0.588L0.02,-0.714L0.559,-0.714L0.559,-0.588L0.365,-0.588L0.365,-0Z" style="fill:rgb(42,99,126);fill-rule:nonzero;"/>
            </g>
            <g transform="matrix(20.7713,-9.1027,9.1027,20.7713,343.77,439.584)">
                <path d="M0.501,-0L0.09,-0L0.09,-0.714L0.501,-0.714L0.501,-0.59L0.241,-0.59L0.241,-0.433L0.483,-0.433L0.483,-0.309L0.241,-0.309L0.241,-0.125L0.501,-0.125L0.501,-0Z" style="fill:rgb(42,99,126);fill-rule:nonzero;"/>
            </g>
            <g transform="matrix(20.021,-10.6521,10.6521,20.021,356.651,433.958)">
                <path d="M0.527,-0L0.475,-0.17L0.215,-0.17L0.163,-0L0,-0L0.252,-0.717L0.437,-0.717L0.69,-0L0.527,-0ZM0.439,-0.297C0.391,-0.451 0.364,-0.538 0.358,-0.558C0.352,-0.578 0.348,-0.594 0.345,-0.606C0.334,-0.564 0.304,-0.461 0.253,-0.297L0.439,-0.297Z" style="fill:rgb(42,99,126);fill-rule:nonzero;"/>
            </g>
            <g transform="matrix(18.868,-12.582,12.582,18.868,371.739,426.012)">
                <path d="M0.392,-0L0.22,-0.56L0.216,-0.56C0.222,-0.446 0.225,-0.37 0.225,-0.332L0.225,-0L0.09,-0L0.09,-0.714L0.296,-0.714L0.465,-0.168L0.468,-0.168L0.647,-0.714L0.853,-0.714L0.853,-0L0.712,-0L0.712,-0.338C0.712,-0.354 0.712,-0.372 0.713,-0.393C0.713,-0.414 0.715,-0.469 0.719,-0.559L0.715,-0.559L0.531,-0L0.392,-0Z" style="fill:rgb(42,99,126);fill-rule:nonzero;"/>
            </g>
        </g>
    </g>
    <defs>
        <linearGradient id="_Linear1" x1="0" y1="0" x2="1" y2="0" gradientUnits="userSpaceOnUse" gradientTransform="matrix(-2.24302,1322.9,-1322.9,-2.24302,1356.13,563.04)"><stop offset="0" style="stop-color:rgb(157,224,255);stop-opacity:1"/><stop offset="0.46" style="stop-color:rgb(185,217,251);stop-opacity:1"/><stop offset="1" style="stop-color:rgb(255,198,241);stop-opacity:1"/></linearGradient>
    </defs>
</svg>
